<svg width="1186" height="282" viewBox="0 0 1186 282" fill="none" xmlns="http://www.w3.org/2000/svg">
<g clip-path="url(#clip0_683_2)">
<path d="M151.313 215.783C159.677 234.983 145.643 256.466 124.701 256.466H58.5705C38.5037 256.466 25.9662 234.743 35.9975 217.37L97.9864 110.001C98.002 109.972 98.0197 109.943 98.0396 109.913C133.593 48.3801 155.568 72.8907 159.473 78.1885C156.683 116.242 133.031 148.492 99.9155 163.547C122.846 173.983 141.246 192.655 151.313 215.783Z" fill="#2D5FFF"/>
<path d="M159.474 78.188C155.569 72.8903 133.594 48.3796 98.041 109.913L140.246 36.8046C148.915 21.7865 170.589 21.7865 179.258 36.8046L288.818 226.555C296.492 239.851 286.899 256.466 271.547 256.466H194.804C173.86 256.466 159.828 234.983 168.192 215.783C178.259 192.654 196.659 173.982 219.589 163.546C186.74 148.615 163.2 116.759 160.104 79.1015" fill="url(#paint0_linear_683_2)"/>
<path d="M160.105 79.1029C160.105 79.1029 159.892 78.7559 159.475 78.1895" stroke="#F21152" stroke-width="0.212932" stroke-miterlimit="10"/>
<path d="M455.847 232.568L445.782 202.804H384.112L374.047 232.568H343.212L397.174 82.6744H432.72L486.682 232.568H455.847ZM392.891 176.893H437.003L414.947 112.011L392.891 176.893ZM581.85 82.6744H609.045V232.568H581.85V219.934C574.783 228.714 564.076 235.352 547.16 235.352C513.541 235.352 494.269 206.872 494.269 178.392C494.269 149.913 513.541 121.433 547.16 121.433C564.076 121.433 574.783 127.857 581.85 136.85V82.6744ZM551.443 209.228C570.072 209.228 580.565 195.095 580.565 178.392C580.565 161.69 570.072 147.557 551.443 147.557C532.813 147.557 522.106 161.69 522.106 178.392C522.106 195.095 532.813 209.228 551.443 209.228ZM679.918 121.433C714.394 121.433 725.743 141.133 725.743 167.043V232.568H698.548V221.005C693.409 229.356 681.417 235.352 666.856 235.352C650.582 235.352 628.312 226.573 628.312 203.446C628.312 167.686 672.423 167.686 686.77 167.686C691.053 167.686 695.978 167.686 698.548 167.686C698.334 152.054 692.766 145.202 676.064 145.202C666.213 145.202 657.434 150.341 653.365 153.125L634.736 138.992C646.727 128.071 661.717 121.433 679.918 121.433ZM698.548 203.232V184.816C697.905 184.816 697.263 184.816 696.835 184.816C677.348 184.816 656.149 184.602 656.149 200.876C656.149 209.014 661.503 215.652 674.993 215.652C688.912 215.652 696.192 207.729 698.548 203.232ZM870.053 121.433C895.106 121.433 907.954 141.775 907.954 164.688V232.568H880.759V170.255C880.759 156.765 875.192 147.771 862.558 147.771C849.924 147.771 843.286 157.836 843.286 170.255V232.568H816.091V170.255C816.091 156.765 810.523 147.771 797.889 147.771C785.255 147.771 778.617 157.836 778.617 170.255V232.568H751.422V124.002H778.617V135.566C784.185 127.643 792.964 121.433 807.311 121.433C822.086 121.433 831.723 128.285 837.29 138.563C843.928 128.927 854.635 121.433 870.053 121.433ZM1021.57 102.161H957.117V146.701H1013.43V166.187H957.117V232.568H935.703V82.6744H1021.57V102.161ZM1046.3 232.568V124.002H1066V232.568H1046.3ZM1056.15 104.73C1049.94 104.73 1045.02 99.8051 1045.02 93.5952C1045.02 87.5995 1049.94 82.4602 1056.15 82.4602C1062.36 82.4602 1067.29 87.5995 1067.29 93.5952C1067.29 99.8051 1062.36 104.73 1056.15 104.73ZM1147.73 142.632H1122.68V190.17C1122.68 205.587 1122.89 215.866 1139.81 215.866C1143.02 215.866 1145.38 215.652 1147.73 215.438V232.568C1144.95 233.211 1141.52 233.639 1137.24 233.639C1113.68 233.639 1103.19 221.005 1103.19 197.236V142.632H1086.27V124.002H1103.19V101.304H1122.68V124.002H1147.73V142.632Z" fill="#2D5FFF"/>
</g>
<defs>
<linearGradient id="paint0_linear_683_2" x1="103.265" y1="346.323" x2="-24.0117" y2="99.2558" gradientUnits="userSpaceOnUse">
<stop stop-color="#2D5FFF"/>
<stop offset="1" stop-color="#5185FF"/>
</linearGradient>
<clipPath id="clip0_683_2">
<rect width="1186" height="282" fill="white"/>
</clipPath>
</defs>
</svg>
