<svg width="282" height="282" viewBox="0 0 282 282" fill="none" xmlns="http://www.w3.org/2000/svg">
<path d="M134.186 187.681C139.91 200.821 130.305 215.524 115.972 215.524H70.7129C56.9793 215.524 48.3987 200.657 55.2641 188.767L97.6891 115.284C97.6998 115.264 97.7119 115.244 97.7255 115.224C122.058 73.1107 137.097 89.8857 139.77 93.5115C137.861 119.555 121.673 141.627 99.0094 151.93C114.703 159.073 127.296 171.852 134.186 187.681Z" fill="#2D5FFF"/>
<path d="M139.771 93.5119C137.099 89.8862 122.059 73.1111 97.7266 115.224L126.612 65.1892C132.544 54.9109 147.378 54.9109 153.311 65.1892L228.294 195.054C233.546 204.153 226.981 215.525 216.473 215.525H163.951C149.617 215.525 140.013 200.822 145.737 187.681C152.628 171.852 165.22 159.073 180.914 151.931C158.432 141.712 142.322 119.91 140.203 94.1371" fill="url(#paint0_linear_683_2)"/>
<path d="M140.203 94.1369C140.203 94.1369 140.057 93.8994 139.771 93.5117" stroke="#F21152" stroke-width="0.14573" stroke-miterlimit="10"/>
<defs>
<linearGradient id="paint0_linear_683_2" x1="101.302" y1="277.023" x2="14.194" y2="107.931" gradientUnits="userSpaceOnUse">
<stop stop-color="#2D5FFF"/>
<stop offset="1" stop-color="#5185FF"/>
</linearGradient>
</defs>
</svg>
